<?xml version="1.0" encoding="utf-8"?>
<svg version="1.1" xmlns:xlink="http://www.w3.org/1999/xlink" width="23px" height="24px" xmlns="http://www.w3.org/2000/svg">
  <g transform="matrix(1 0 0 1 -614 -2632 )">
    <path d="M 17.6762237762238 12  L 21.9545454545455 14.40625  C 22.4477855477856 14.6770833333333  22.7667832167832 15.0807291666667  22.9115384615385 15.6171875  C 23.0562937062937 16.1536458333333  22.9892773892774 16.6614583333333  22.7104895104895 17.140625  L 21.6811188811189 18.859375  C 21.402331002331 19.3385416666667  20.9868298368298 19.6484375  20.4346153846154 19.7890625  C 19.8824009324009 19.9296875  19.3596736596737 19.8645833333333  18.8664335664336 19.59375  L 14.5881118881119 17.203125  L 14.5881118881119 22  C 14.5881118881119 22.5416666666667  14.3843822843823 23.0104166666667  13.9769230769231 23.40625  C 13.5694638694639 23.8020833333333  13.0869463869464 24  12.5293706293706 24  L 10.4706293706294 24  C 9.91305361305361 24  9.43053613053613 23.8020833333333  9.02307692307692 23.40625  C 8.61561771561772 23.0104166666667  8.41188811188811 22.5416666666667  8.41188811188811 22  L 8.41188811188811 17.203125  L 4.13356643356643 19.59375  C 3.64032634032634 19.8645833333333  3.11759906759907 19.9296875  2.56538461538462 19.7890625  C 2.01317016317016 19.6484375  1.597668997669 19.3385416666667  1.31888111888112 18.859375  L 0.28951048951049 17.140625  C 0.0107226107226108 16.6614583333333  -0.0562937062937063 16.1536458333333  0.0884615384615385 15.6171875  C 0.233216783216783 15.0807291666667  0.552214452214452 14.6770833333333  1.04545454545455 14.40625  L 5.32377622377622 12  L 1.04545454545455 9.59375  C 0.552214452214452 9.32291666666666  0.233216783216783 8.91927083333333  0.0884615384615385 8.3828125  C -0.0562937062937063 7.84635416666667  0.0107226107226108 7.33854166666666  0.28951048951049 6.859375  L 1.31888111888112 5.140625  C 1.597668997669 4.66145833333333  2.01317016317016 4.3515625  2.56538461538462 4.2109375  C 3.11759906759907 4.0703125  3.64032634032634 4.13541666666666  4.13356643356643 4.40625  L 8.41188811188811 6.796875  L 8.41188811188811 2  C 8.41188811188811 1.45833333333333  8.61561771561772 0.989583333333332  9.02307692307692 0.593750000000001  C 9.43053613053613 0.197916666666664  9.91305361305361 0  10.4706293706294 0  L 12.5293706293706 0  C 13.0869463869464 0  13.5694638694639 0.197916666666664  13.9769230769231 0.593750000000001  C 14.3843822843823 0.989583333333332  14.5881118881119 1.45833333333333  14.5881118881119 2  L 14.5881118881119 6.796875  L 18.8664335664336 4.40625  C 19.3596736596737 4.13541666666666  19.8824009324009 4.0703125  20.4346153846154 4.2109375  C 20.9868298368298 4.3515625  21.402331002331 4.66145833333333  21.6811188811189 5.140625  L 22.7104895104895 6.859375  C 22.9892773892774 7.33854166666666  23.0562937062937 7.84635416666667  22.9115384615385 8.3828125  C 22.7667832167832 8.91927083333333  22.4477855477856 9.32291666666666  21.9545454545455 9.59375  L 17.6762237762238 12  Z " fill-rule="nonzero" fill="#000000" stroke="none" transform="matrix(1 0 0 1 614 2632 )" />
  </g>
</svg>