<?xml version="1.0" standalone="no"?>
<!DOCTYPE svg PUBLIC "-//W3C//DTD SVG 20010904//EN"
 "http://www.w3.org/TR/2001/REC-SVG-20010904/DTD/svg10.dtd">
<svg version="1.0" xmlns="http://www.w3.org/2000/svg"
 width="370.000000pt" height="370.000000pt" viewBox="0 0 370.000000 370.000000"
 preserveAspectRatio="xMidYMid meet">
<metadata>
Created by potrace 1.11, written by Peter Selinger 2001-2013
</metadata>
<g transform="translate(0.000000,370.000000) scale(0.100000,-0.100000)"
fill="#000000" stroke="none">
<path d="M1865 3395 c-5 -3 -37 -9 -70 -14 -33 -5 -78 -15 -100 -21 -22 -7
-78 -20 -125 -31 -47 -10 -95 -23 -108 -29 -13 -5 -41 -10 -63 -10 -49 0 -91
-20 -147 -72 -23 -21 -64 -48 -90 -59 -68 -29 -285 -139 -369 -188 -40 -22
-76 -41 -81 -41 -4 0 -20 -13 -35 -28 -15 -16 -47 -39 -72 -51 -68 -34 -128
-116 -159 -217 -4 -12 -76 -92 -161 -179 -198 -201 -219 -238 -220 -395 0
-100 1 -107 30 -149 17 -25 53 -58 81 -75 28 -17 72 -48 97 -69 40 -34 47 -45
62 -110 9 -40 23 -92 31 -117 7 -25 34 -142 58 -260 76 -365 106 -468 157
-532 16 -20 29 -40 29 -43 0 -20 66 -97 117 -137 133 -104 391 -205 583 -228
52 -6 144 -18 204 -27 133 -20 365 -14 596 16 85 11 207 25 270 31 63 6 131
15 150 20 19 5 60 16 90 23 98 26 266 100 346 153 64 42 146 130 172 186 21
43 68 232 96 383 25 138 78 355 114 476 35 114 36 117 81 145 25 16 53 32 62
35 31 14 129 134 135 167 10 50 0 163 -18 202 -8 19 -23 54 -33 77 -10 23 -26
50 -36 59 -11 10 -19 23 -19 30 0 20 -158 155 -250 214 -47 30 -110 75 -140
99 -56 45 -159 155 -188 201 -42 66 -95 119 -135 135 -23 9 -51 25 -62 35 -11
10 -49 33 -84 51 -64 34 -91 68 -91 117 0 27 -40 61 -80 68 -41 7 -128 33
-152 45 -10 5 -41 9 -70 9 -42 0 -57 5 -79 26 -39 37 -150 74 -239 79 -41 3
-79 3 -85 0z"/>
</g>
</svg>
